#extradata 0:       85, 0x17ac0df1
#tb 0: 1/90000
#media_type 0: video
#codec_id 0: hevc
#dimensions 0: 320x180
#sar 0: 0/1
0,      -6000,          0,     3000,    28479, 0x5e5537ac, S=1, MPEGTS Stream ID,        1, 0x00e000e0
0,      -3000,      12000,     3000,     2297, 0x79767293, F=0x0, S=1, MPEGTS Stream ID,        1, 0x00e000e0
0,          0,       6000,     3000,      191, 0x565442be, F=0x0, S=1, MPEGTS Stream ID,        1, 0x00e000e0
0,       3000,       3000,     3000,      167, 0x77dd34cf, F=0x0, S=1, MPEGTS Stream ID,        1, 0x00e000e0
0,       6000,       9000,     3000,      158, 0xc3222e81, F=0x0, S=1, MPEGTS Stream ID,        1, 0x00e000e0
0,       9000,      24000,     3000,     2193, 0x14f41b00, F=0x0, S=1, MPEGTS Stream ID,        1, 0x00e000e0
0,      12000,      18000,     3000,      566, 0xb2331395, F=0x0, S=1, MPEGTS Stream ID,        1, 0x00e000e0
0,      15000,      15000,     3000,      410, 0xc835a9b7, F=0x0, S=1, MPEGTS Stream ID,        1, 0x00e000e0
0,      18000,      21000,     3000,      467, 0x7e10c336, F=0x0, S=1, MPEGTS Stream ID,        1, 0x00e000e0
0,      21000,      27000,     3000,     1317, 0x06378d15, F=0x0, S=1, MPEGTS Stream ID,        1, 0x00e000e0
0,      24000,      42000,     3000,     2146, 0x35d70ad2, F=0x0, S=1, MPEGTS Stream ID,        1, 0x00e000e0
0,      27000,      36000,     3000,      414, 0xc213b79f, F=0x0, S=1, MPEGTS Stream ID,        1, 0x00e000e0
0,      30000,      30000,     3000,      510, 0xce77fac6, F=0x0, S=1, MPEGTS Stream ID,        1, 0x00e000e0
0,      33000,      33000,     3000,      458, 0xd57cc623, F=0x0, S=1, MPEGTS Stream ID,        1, 0x00e000e0
0,      36000,      39000,     3000,      400, 0x8209a0d1, F=0x0, S=1, MPEGTS Stream ID,        1, 0x00e000e0
0,      39000,      45000,     3000,      846, 0x2a908bde, F=0x0, S=1, MPEGTS Stream ID,        1, 0x00e000e0
0,      42000,      60000,     3000,     2327, 0x8b416c0f, F=0x0, S=1, MPEGTS Stream ID,        1, 0x00e000e0
0,      45000,      54000,     3000,      320, 0xb45f8905, F=0x0, S=1, MPEGTS Stream ID,        1, 0x00e000e0
0,      48000,      48000,     3000,      455, 0xacb2bc77, F=0x0, S=1, MPEGTS Stream ID,        1, 0x00e000e0
0,      51000,      51000,     3000,      334, 0xfca09b6c, F=0x0, S=1, MPEGTS Stream ID,        1, 0x00e000e0
0,      54000,      57000,     3000,      359, 0x876791d7, F=0x0, S=1, MPEGTS Stream ID,        1, 0x00e000e0
0,      57000,      72000,     3000,     2004, 0xdb76d561, F=0x0, S=1, MPEGTS Stream ID,        1, 0x00e000e0
0,      60000,      66000,     3000,      320, 0x0a097bc5, F=0x0, S=1, MPEGTS Stream ID,        1, 0x00e000e0
0,      63000,      63000,     3000,      237, 0xb1085aba, F=0x0, S=1, MPEGTS Stream ID,        1, 0x00e000e0
0,      66000,      69000,     3000,      273, 0xe9ee674b, F=0x0, S=1, MPEGTS Stream ID,        1, 0x00e000e0
0,      69000,      87000,     3000,      342, 0xa4078b36, F=0x0, S=1, MPEGTS Stream ID,        1, 0x00e000e0
0,      72000,      81000,     3000,      394, 0x8757a655, F=0x0, S=1, MPEGTS Stream ID,        1, 0x00e000e0
0,      75000,      75000,     3000,      694, 0xe5834686, F=0x0, S=1, MPEGTS Stream ID,        1, 0x00e000e0
0,      78000,      78000,     3000,      941, 0x8dc3bc81, F=0x0, S=1, MPEGTS Stream ID,        1, 0x00e000e0
0,      81000,      84000,     3000,      729, 0x716c4b2d, F=0x0, S=1, MPEGTS Stream ID,        1, 0x00e000e0
[FRAME]
[SIDE_DATA]
side_data_type=LCEVC NAL data
[/SIDE_DATA]
[SIDE_DATA]
side_data_type=H.26[45] User Data Unregistered SEI message
[/SIDE_DATA]
[/FRAME]
[FRAME]
[SIDE_DATA]
side_data_type=LCEVC NAL data
[/SIDE_DATA]
[/FRAME]
[FRAME]
[SIDE_DATA]
side_data_type=LCEVC NAL data
[/SIDE_DATA]
[/FRAME]
[FRAME]
[SIDE_DATA]
side_data_type=LCEVC NAL data
[/SIDE_DATA]
[/FRAME]
[FRAME]
[SIDE_DATA]
side_data_type=LCEVC NAL data
[/SIDE_DATA]
[/FRAME]
[FRAME]
[SIDE_DATA]
side_data_type=LCEVC NAL data
[/SIDE_DATA]
[/FRAME]
[FRAME]
[SIDE_DATA]
side_data_type=LCEVC NAL data
[/SIDE_DATA]
[/FRAME]
[FRAME]
[SIDE_DATA]
side_data_type=LCEVC NAL data
[/SIDE_DATA]
[/FRAME]
[FRAME]
[SIDE_DATA]
side_data_type=LCEVC NAL data
[/SIDE_DATA]
[/FRAME]
[FRAME]
[SIDE_DATA]
side_data_type=LCEVC NAL data
[/SIDE_DATA]
[/FRAME]
[FRAME]
[SIDE_DATA]
side_data_type=LCEVC NAL data
[/SIDE_DATA]
[/FRAME]
[FRAME]
[SIDE_DATA]
side_data_type=LCEVC NAL data
[/SIDE_DATA]
[/FRAME]
[FRAME]
[SIDE_DATA]
side_data_type=LCEVC NAL data
[/SIDE_DATA]
[/FRAME]
[FRAME]
[SIDE_DATA]
side_data_type=LCEVC NAL data
[/SIDE_DATA]
[/FRAME]
[FRAME]
[SIDE_DATA]
side_data_type=LCEVC NAL data
[/SIDE_DATA]
[/FRAME]
[FRAME]
[SIDE_DATA]
side_data_type=LCEVC NAL data
[/SIDE_DATA]
[/FRAME]
[FRAME]
[SIDE_DATA]
side_data_type=LCEVC NAL data
[/SIDE_DATA]
[/FRAME]
[FRAME]
[SIDE_DATA]
side_data_type=LCEVC NAL data
[/SIDE_DATA]
[/FRAME]
[FRAME]
[SIDE_DATA]
side_data_type=LCEVC NAL data
[/SIDE_DATA]
[/FRAME]
[FRAME]
[SIDE_DATA]
side_data_type=LCEVC NAL data
[/SIDE_DATA]
[/FRAME]
[FRAME]
[SIDE_DATA]
side_data_type=LCEVC NAL data
[/SIDE_DATA]
[/FRAME]
[FRAME]
[SIDE_DATA]
side_data_type=LCEVC NAL data
[/SIDE_DATA]
[/FRAME]
[FRAME]
[SIDE_DATA]
side_data_type=LCEVC NAL data
[/SIDE_DATA]
[/FRAME]
[FRAME]
[SIDE_DATA]
side_data_type=LCEVC NAL data
[/SIDE_DATA]
[/FRAME]
[FRAME]
[SIDE_DATA]
side_data_type=LCEVC NAL data
[/SIDE_DATA]
[/FRAME]
[FRAME]
[SIDE_DATA]
side_data_type=LCEVC NAL data
[/SIDE_DATA]
[/FRAME]
[FRAME]
[SIDE_DATA]
side_data_type=LCEVC NAL data
[/SIDE_DATA]
[/FRAME]
[FRAME]
[SIDE_DATA]
side_data_type=LCEVC NAL data
[/SIDE_DATA]
[/FRAME]
[FRAME]
[SIDE_DATA]
side_data_type=LCEVC NAL data
[/SIDE_DATA]
[/FRAME]
[FRAME]
[SIDE_DATA]
side_data_type=LCEVC NAL data
[/SIDE_DATA]
[/FRAME]
